<?xml version="1.0" ?>
<!-- Uploaded to: SVG Repo, www.svgrepo.com, Generator: SVG Repo Mixer Tools -->
<svg fill="#000000" width="800px" height="800px" viewBox="0 0 32 32" xmlns="http://www.w3.org/2000/svg">
<title/>
<g data-name="Layer 11" id="Layer_11">
<path d="M28.8,1H20.2A2.21,2.21,0,0,0,18,3.2V5H3.6A2.61,2.61,0,0,0,1,7.6V22.4A2.61,2.61,0,0,0,3.6,25h6.64L9.7,29H8.86a1,1,0,1,0,0,2H19.14a1,1,0,0,0,0-2h-.86l-.68-4h6.8A2.61,2.61,0,0,0,27,22.4V7.6A2.61,2.61,0,0,0,24.4,5H20V3.2a.2.2,0,0,1,.2-.2h8.6a.2.2,0,0,1,.2.2V26.8a.2.2,0,0,1-.2.2H21a1,1,0,0,0,0,2h7.8A2.21,2.21,0,0,0,31,26.8V3.2A2.21,2.21,0,0,0,28.8,1ZM16.25,29H11.72l.54-4h3.32ZM25,7.6V22.4a.6.6,0,0,1-.6.6H3.6a.6.6,0,0,1-.6-.6V7.6A.6.6,0,0,1,3.6,7H24.4A.6.6,0,0,1,25,7.6Z"/>
</g>
</svg>